<svg id="Calque_1" data-name="Calque 1" xmlns="http://www.w3.org/2000/svg" viewBox="0 0 1741.06 411.35"><defs><style>.cls-1{fill:#683c11;}.cls-2{fill:#95c11f;}</style></defs><title>logo</title><path class="cls-1" d="M541,473.94H493.84L428.65,270.27,345.14,395.54,261.32,270.27,196.14,473.94H149.27l97.93-293.79,29.14,43.26,68.79,101.84,68.49-101.84,29.44-43.26Z" transform="translate(-149.27 -62.6)"/><path class="cls-1" d="M679.19,278.08q40.55,0,69.09,28.84,28.84,28.54,28.84,69.09v97.93H679.19q-40.55,0-69.39-28.54Q581.25,416.57,581.25,376t28.54-69.09Q638.63,278.08,679.19,278.08ZM737.76,376a58.73,58.73,0,1,0-100,41.46,56,56,0,0,0,41.46,17.42h58.58Z" transform="translate(-149.27 -62.6)"/><path class="cls-1" d="M810.16,376q0-40.55,28.54-69.09,28.84-28.84,69.39-28.84a94.67,94.67,0,0,1,58.58,19.53V180.15H1006V473.94H908.09q-40.55,0-69.39-28.54Q810.16,416.57,810.16,376Zm39.05,0a59.5,59.5,0,0,0,58.88,58.88h58.58V376a58.73,58.73,0,0,0-117.46,0Z" transform="translate(-149.27 -62.6)"/><path class="cls-1" d="M1119,395.84h-35.75a55.22,55.22,0,0,0,21,27.94,56.92,56.92,0,0,0,34.25,11.11h97.93v39.05H1138.5q-40.55,0-69.39-28.54-28.54-28.84-28.54-69.39t28.54-69.09q28.84-28.84,69.39-28.84t69.09,28.84q28.84,28.54,28.84,69.09v19.53H1119Zm19.53-78.41a58,58,0,0,0-34.25,10.81,56.84,56.84,0,0,0-21,28.24h110.55a56.9,56.9,0,0,0-21-28.24A58,58,0,0,0,1138.5,317.43Z" transform="translate(-149.27 -62.6)"/><path class="cls-1" d="M1266.78,473.94V376q0-40.55,28.54-69.09,28.84-28.84,69.39-28.84h39.05v39.35h-39.05A59,59,0,0,0,1305.83,376v97.93Z" transform="translate(-149.27 -62.6)"/><path class="cls-1" d="M1532.63,278.08q40.55,0,69.09,28.84,28.84,28.54,28.84,69.09v97.93h-97.93q-40.55,0-69.39-28.54Q1434.7,416.57,1434.7,376t28.54-69.09Q1492.08,278.08,1532.63,278.08ZM1591.21,376a58.73,58.73,0,1,0-100,41.46,56,56,0,0,0,41.46,17.42h58.58Z" transform="translate(-149.27 -62.6)"/><path class="cls-2" d="M1667.55,170.89H1768V72.14a9.55,9.55,0,0,0-9.55-9.55H1557.6a9.55,9.55,0,0,0-9.55,9.55V269.63a9.55,9.55,0,0,0,9.55,9.55H1658V180.44A9.55,9.55,0,0,1,1667.55,170.89Z" transform="translate(-149.27 -62.6)"/><path class="cls-2" d="M1880.79,182.56H1680a9.55,9.55,0,0,0-9.55,9.55V389.59a9.55,9.55,0,0,0,9.55,9.55h200.81a9.55,9.55,0,0,0,9.55-9.55V192.1A9.55,9.55,0,0,0,1880.79,182.56Z" transform="translate(-149.27 -62.6)"/></svg>